<mxfile host="app.diagrams.net" modified="2023-05-12T07:04:48.719Z" agent="Mozilla/5.0 (X11; Linux x86_64; rv:108.0) Gecko/20100101 Firefox/108.0" etag="aNndLEqPf_IGxL-grA8w" version="21.2.9" type="device">
  <diagram id="1kr0usrAQLtEqkzFKiRM" name="1">
    <mxGraphModel dx="819" dy="410" grid="1" gridSize="10" guides="1" tooltips="1" connect="1" arrows="1" fold="1" page="1" pageScale="1" pageWidth="850" pageHeight="1100" math="0" shadow="0">
      <root>
        <mxCell id="0" />
        <mxCell id="1" parent="0" />
        <mxCell id="cqVYMry59N9UZPgs0Bm9-10" value="БД" style="shape=umlLifeline;perimeter=lifelinePerimeter;whiteSpace=wrap;html=1;container=1;dropTarget=0;collapsible=0;recursiveResize=0;outlineConnect=0;portConstraint=eastwest;newEdgeStyle={&quot;edgeStyle&quot;:&quot;elbowEdgeStyle&quot;,&quot;elbow&quot;:&quot;vertical&quot;,&quot;curved&quot;:0,&quot;rounded&quot;:0};" parent="1" vertex="1">
          <mxGeometry x="770" y="20" width="100" height="810" as="geometry" />
        </mxCell>
        <mxCell id="3GTKKzVxXfIGzvCKWGv_-28" value="" style="html=1;points=[];perimeter=orthogonalPerimeter;outlineConnect=0;targetShapes=umlLifeline;portConstraint=eastwest;newEdgeStyle={&quot;edgeStyle&quot;:&quot;elbowEdgeStyle&quot;,&quot;elbow&quot;:&quot;vertical&quot;,&quot;curved&quot;:0,&quot;rounded&quot;:0};" parent="cqVYMry59N9UZPgs0Bm9-10" vertex="1">
          <mxGeometry x="45" y="240" width="10" height="50" as="geometry" />
        </mxCell>
        <mxCell id="HHi8rUYdaDSBZEgGdHeV-1" value="" style="shape=umlLifeline;perimeter=lifelinePerimeter;whiteSpace=wrap;html=1;container=1;dropTarget=0;collapsible=0;recursiveResize=0;outlineConnect=0;portConstraint=eastwest;newEdgeStyle={&quot;edgeStyle&quot;:&quot;elbowEdgeStyle&quot;,&quot;elbow&quot;:&quot;vertical&quot;,&quot;curved&quot;:0,&quot;rounded&quot;:0};participant=umlActor;" parent="1" vertex="1">
          <mxGeometry x="30" y="20" width="20" height="860" as="geometry" />
        </mxCell>
        <mxCell id="U_MsdGsvR3tznzFc6l3o-11" value="" style="html=1;points=[];perimeter=orthogonalPerimeter;outlineConnect=0;targetShapes=umlLifeline;portConstraint=eastwest;newEdgeStyle={&quot;edgeStyle&quot;:&quot;elbowEdgeStyle&quot;,&quot;elbow&quot;:&quot;vertical&quot;,&quot;curved&quot;:0,&quot;rounded&quot;:0};" parent="HHi8rUYdaDSBZEgGdHeV-1" vertex="1">
          <mxGeometry x="5" y="80" width="10" height="710" as="geometry" />
        </mxCell>
        <mxCell id="763_aXvbmjF2EpK8wJ3p-1" value="Сотрудник" style="text;whiteSpace=wrap;html=1;" parent="1" vertex="1">
          <mxGeometry x="10" y="60" width="90" height="40" as="geometry" />
        </mxCell>
        <mxCell id="cqVYMry59N9UZPgs0Bm9-1" value="Интерфейс" style="shape=umlLifeline;perimeter=lifelinePerimeter;whiteSpace=wrap;html=1;container=1;dropTarget=0;collapsible=0;recursiveResize=0;outlineConnect=0;portConstraint=eastwest;newEdgeStyle={&quot;edgeStyle&quot;:&quot;elbowEdgeStyle&quot;,&quot;elbow&quot;:&quot;vertical&quot;,&quot;curved&quot;:0,&quot;rounded&quot;:0};" parent="1" vertex="1">
          <mxGeometry x="200" y="20" width="100" height="840" as="geometry" />
        </mxCell>
        <mxCell id="U_MsdGsvR3tznzFc6l3o-12" value="" style="html=1;points=[];perimeter=orthogonalPerimeter;outlineConnect=0;targetShapes=umlLifeline;portConstraint=eastwest;newEdgeStyle={&quot;edgeStyle&quot;:&quot;elbowEdgeStyle&quot;,&quot;elbow&quot;:&quot;vertical&quot;,&quot;curved&quot;:0,&quot;rounded&quot;:0};" parent="cqVYMry59N9UZPgs0Bm9-1" vertex="1">
          <mxGeometry x="45" y="80" width="10" height="710" as="geometry" />
        </mxCell>
        <mxCell id="cqVYMry59N9UZPgs0Bm9-4" value="Система x" style="shape=umlLifeline;perimeter=lifelinePerimeter;whiteSpace=wrap;html=1;container=1;dropTarget=0;collapsible=0;recursiveResize=0;outlineConnect=0;portConstraint=eastwest;newEdgeStyle={&quot;edgeStyle&quot;:&quot;elbowEdgeStyle&quot;,&quot;elbow&quot;:&quot;vertical&quot;,&quot;curved&quot;:0,&quot;rounded&quot;:0};" parent="1" vertex="1">
          <mxGeometry x="400" y="20" width="100" height="780" as="geometry" />
        </mxCell>
        <mxCell id="z_XZykT9BwUUyuPNIKY1-1" value="" style="html=1;points=[];perimeter=orthogonalPerimeter;outlineConnect=0;targetShapes=umlLifeline;portConstraint=eastwest;newEdgeStyle={&quot;edgeStyle&quot;:&quot;elbowEdgeStyle&quot;,&quot;elbow&quot;:&quot;vertical&quot;,&quot;curved&quot;:0,&quot;rounded&quot;:0};" parent="cqVYMry59N9UZPgs0Bm9-4" vertex="1">
          <mxGeometry x="45" y="220" width="10" height="50" as="geometry" />
        </mxCell>
        <mxCell id="3GTKKzVxXfIGzvCKWGv_-30" value="" style="html=1;points=[];perimeter=orthogonalPerimeter;outlineConnect=0;targetShapes=umlLifeline;portConstraint=eastwest;newEdgeStyle={&quot;edgeStyle&quot;:&quot;elbowEdgeStyle&quot;,&quot;elbow&quot;:&quot;vertical&quot;,&quot;curved&quot;:0,&quot;rounded&quot;:0};" parent="cqVYMry59N9UZPgs0Bm9-4" vertex="1">
          <mxGeometry x="47.5" y="440" width="10" height="64" as="geometry" />
        </mxCell>
        <mxCell id="3kv5yJXeI2V7Gf_krpT_-17" value="" style="html=1;points=[];perimeter=orthogonalPerimeter;outlineConnect=0;targetShapes=umlLifeline;portConstraint=eastwest;newEdgeStyle={&quot;edgeStyle&quot;:&quot;elbowEdgeStyle&quot;,&quot;elbow&quot;:&quot;vertical&quot;,&quot;curved&quot;:0,&quot;rounded&quot;:0};" parent="cqVYMry59N9UZPgs0Bm9-4" vertex="1">
          <mxGeometry x="47.5" y="580" width="10" height="120" as="geometry" />
        </mxCell>
        <mxCell id="knhCUR0uLUils2cPfXEL-5" value="" style="html=1;points=[];perimeter=orthogonalPerimeter;outlineConnect=0;targetShapes=umlLifeline;portConstraint=eastwest;newEdgeStyle={&quot;edgeStyle&quot;:&quot;elbowEdgeStyle&quot;,&quot;elbow&quot;:&quot;vertical&quot;,&quot;curved&quot;:0,&quot;rounded&quot;:0};" parent="cqVYMry59N9UZPgs0Bm9-4" vertex="1">
          <mxGeometry x="45" y="110" width="10" height="50" as="geometry" />
        </mxCell>
        <mxCell id="cqVYMry59N9UZPgs0Bm9-7" value="Сервер системы y" style="shape=umlLifeline;perimeter=lifelinePerimeter;whiteSpace=wrap;html=1;container=1;dropTarget=0;collapsible=0;recursiveResize=0;outlineConnect=0;portConstraint=eastwest;newEdgeStyle={&quot;edgeStyle&quot;:&quot;elbowEdgeStyle&quot;,&quot;elbow&quot;:&quot;vertical&quot;,&quot;curved&quot;:0,&quot;rounded&quot;:0};" parent="1" vertex="1">
          <mxGeometry x="590" y="20" width="100" height="820" as="geometry" />
        </mxCell>
        <mxCell id="3GTKKzVxXfIGzvCKWGv_-14" value="" style="html=1;points=[];perimeter=orthogonalPerimeter;outlineConnect=0;targetShapes=umlLifeline;portConstraint=eastwest;newEdgeStyle={&quot;edgeStyle&quot;:&quot;elbowEdgeStyle&quot;,&quot;elbow&quot;:&quot;vertical&quot;,&quot;curved&quot;:0,&quot;rounded&quot;:0};" parent="cqVYMry59N9UZPgs0Bm9-7" vertex="1">
          <mxGeometry x="47.5" y="540" width="10" height="100" as="geometry" />
        </mxCell>
        <mxCell id="3GTKKzVxXfIGzvCKWGv_-15" value="" style="html=1;points=[];perimeter=orthogonalPerimeter;outlineConnect=0;targetShapes=umlLifeline;portConstraint=eastwest;newEdgeStyle={&quot;edgeStyle&quot;:&quot;elbowEdgeStyle&quot;,&quot;elbow&quot;:&quot;vertical&quot;,&quot;curved&quot;:0,&quot;rounded&quot;:0};" parent="cqVYMry59N9UZPgs0Bm9-7" vertex="1">
          <mxGeometry x="227.5" y="350" width="10" height="110" as="geometry" />
        </mxCell>
        <mxCell id="3GTKKzVxXfIGzvCKWGv_-21" value="&lt;font style=&quot;font-size: 9px;&quot;&gt;8: Отправка ответа &quot;Данных нет&quot; &lt;/font&gt;" style="html=1;verticalAlign=bottom;endArrow=open;dashed=1;endSize=8;edgeStyle=elbowEdgeStyle;elbow=vertical;curved=0;rounded=0;" parent="cqVYMry59N9UZPgs0Bm9-7" source="3GTKKzVxXfIGzvCKWGv_-15" target="3GTKKzVxXfIGzvCKWGv_-13" edge="1">
          <mxGeometry x="0.056" relative="1" as="geometry">
            <mxPoint x="172.5" y="370" as="sourcePoint" />
            <mxPoint x="-7.5" y="370" as="targetPoint" />
            <Array as="points">
              <mxPoint x="110" y="369.52" />
              <mxPoint x="100" y="379.52" />
              <mxPoint x="120" y="389.52" />
            </Array>
            <mxPoint as="offset" />
          </mxGeometry>
        </mxCell>
        <mxCell id="3GTKKzVxXfIGzvCKWGv_-22" value="&lt;font style=&quot;font-size: 9px;&quot;&gt;10: Отправка положительного ответа &lt;/font&gt;" style="html=1;verticalAlign=bottom;endArrow=open;dashed=1;endSize=8;edgeStyle=elbowEdgeStyle;elbow=vertical;curved=0;rounded=0;" parent="cqVYMry59N9UZPgs0Bm9-7" source="3GTKKzVxXfIGzvCKWGv_-15" target="3GTKKzVxXfIGzvCKWGv_-13" edge="1">
          <mxGeometry x="0.0541" relative="1" as="geometry">
            <mxPoint x="197.5" y="420.48" as="sourcePoint" />
            <mxPoint x="7.5" y="430" as="targetPoint" />
            <Array as="points">
              <mxPoint x="132.5" y="430" />
              <mxPoint x="130" y="420" />
              <mxPoint x="120" y="430" />
              <mxPoint x="140" y="440" />
            </Array>
            <mxPoint as="offset" />
          </mxGeometry>
        </mxCell>
        <mxCell id="3GTKKzVxXfIGzvCKWGv_-23" value="&lt;font style=&quot;font-size: 9px;&quot;&gt;9: Сохранение изменений&lt;br&gt;&lt;/font&gt;" style="html=1;verticalAlign=bottom;endArrow=block;edgeStyle=elbowEdgeStyle;elbow=vertical;curved=0;rounded=0;" parent="cqVYMry59N9UZPgs0Bm9-7" source="3GTKKzVxXfIGzvCKWGv_-13" target="3GTKKzVxXfIGzvCKWGv_-15" edge="1">
          <mxGeometry width="80" relative="1" as="geometry">
            <mxPoint x="7.5" y="380" as="sourcePoint" />
            <mxPoint x="197.5" y="380" as="targetPoint" />
            <Array as="points">
              <mxPoint x="112.5" y="400" />
              <mxPoint x="102.5" y="390" />
              <mxPoint x="82.5" y="390" />
              <mxPoint x="172.5" y="400" />
              <mxPoint x="92.5" y="400" />
              <mxPoint x="2.5" y="410" />
            </Array>
            <mxPoint as="offset" />
          </mxGeometry>
        </mxCell>
        <mxCell id="3GTKKzVxXfIGzvCKWGv_-16" value="" style="html=1;points=[];perimeter=orthogonalPerimeter;outlineConnect=0;targetShapes=umlLifeline;portConstraint=eastwest;newEdgeStyle={&quot;edgeStyle&quot;:&quot;elbowEdgeStyle&quot;,&quot;elbow&quot;:&quot;vertical&quot;,&quot;curved&quot;:0,&quot;rounded&quot;:0};" parent="cqVYMry59N9UZPgs0Bm9-7" vertex="1">
          <mxGeometry x="227.5" y="540" width="10" height="110" as="geometry" />
        </mxCell>
        <mxCell id="3GTKKzVxXfIGzvCKWGv_-24" value="&lt;font style=&quot;font-size: 9px;&quot;&gt;13: Отправка ответа &quot;Клиент с такими &lt;br&gt;данными есть&quot; &lt;/font&gt;" style="html=1;verticalAlign=bottom;endArrow=open;dashed=1;endSize=8;edgeStyle=elbowEdgeStyle;elbow=vertical;curved=0;rounded=0;" parent="cqVYMry59N9UZPgs0Bm9-7" source="3GTKKzVxXfIGzvCKWGv_-16" target="3GTKKzVxXfIGzvCKWGv_-14" edge="1">
          <mxGeometry x="0.0558" relative="1" as="geometry">
            <mxPoint x="267.5" y="560.48" as="sourcePoint" />
            <mxPoint x="52.5" y="560.48" as="targetPoint" />
            <Array as="points">
              <mxPoint x="162.5" y="570" />
              <mxPoint x="140" y="570" />
              <mxPoint x="160" y="580" />
            </Array>
            <mxPoint as="offset" />
          </mxGeometry>
        </mxCell>
        <mxCell id="3GTKKzVxXfIGzvCKWGv_-17" value="Alt" style="shape=umlFrame;whiteSpace=wrap;html=1;pointerEvents=0;recursiveResize=0;container=1;collapsible=0;width=30;height=20;" parent="cqVYMry59N9UZPgs0Bm9-7" vertex="1">
          <mxGeometry x="32.5" y="290" width="240" height="410" as="geometry" />
        </mxCell>
        <mxCell id="3GTKKzVxXfIGzvCKWGv_-18" value="&lt;font style=&quot;font-size: 9px;&quot;&gt;[Валидация прошла&lt;br&gt;успешно]&lt;/font&gt;" style="text;html=1;" parent="3GTKKzVxXfIGzvCKWGv_-17" vertex="1">
          <mxGeometry width="100" height="20" relative="1" as="geometry">
            <mxPoint x="50" as="offset" />
          </mxGeometry>
        </mxCell>
        <mxCell id="3GTKKzVxXfIGzvCKWGv_-19" value="" style="line;strokeWidth=1;dashed=1;labelPosition=center;verticalLabelPosition=bottom;align=left;verticalAlign=top;spacingLeft=20;spacingTop=15;html=1;whiteSpace=wrap;" parent="3GTKKzVxXfIGzvCKWGv_-17" vertex="1">
          <mxGeometry y="120" width="240" height="170" as="geometry" />
        </mxCell>
        <mxCell id="3GTKKzVxXfIGzvCKWGv_-20" value="&lt;font style=&quot;font-size: 9px;&quot;&gt;[&lt;/font&gt;&lt;font style=&quot;font-size: 9px;&quot;&gt;Валидация прошла&lt;br&gt;не успешно&lt;/font&gt;&lt;font style=&quot;font-size: 9px;&quot;&gt;]&lt;/font&gt;" style="text;whiteSpace=wrap;html=1;" parent="3GTKKzVxXfIGzvCKWGv_-17" vertex="1">
          <mxGeometry x="40" y="210" width="120" height="50" as="geometry" />
        </mxCell>
        <mxCell id="3GTKKzVxXfIGzvCKWGv_-13" value="" style="html=1;points=[];perimeter=orthogonalPerimeter;outlineConnect=0;targetShapes=umlLifeline;portConstraint=eastwest;newEdgeStyle={&quot;edgeStyle&quot;:&quot;elbowEdgeStyle&quot;,&quot;elbow&quot;:&quot;vertical&quot;,&quot;curved&quot;:0,&quot;rounded&quot;:0};" parent="3GTKKzVxXfIGzvCKWGv_-17" vertex="1">
          <mxGeometry x="15" y="60" width="10" height="130" as="geometry" />
        </mxCell>
        <mxCell id="3kv5yJXeI2V7Gf_krpT_-19" value="&lt;font style=&quot;font-size: 9px;&quot;&gt;14: Отправка сообщения об ошибке&lt;br&gt;&lt;/font&gt;" style="html=1;verticalAlign=bottom;endArrow=open;dashed=1;endSize=8;edgeStyle=elbowEdgeStyle;elbow=vertical;curved=0;rounded=0;" parent="3GTKKzVxXfIGzvCKWGv_-17" target="3kv5yJXeI2V7Gf_krpT_-17" edge="1">
          <mxGeometry x="0.0578" relative="1" as="geometry">
            <mxPoint x="15" y="330" as="sourcePoint" />
            <mxPoint x="-155" y="330" as="targetPoint" />
            <Array as="points">
              <mxPoint x="-50" y="330" />
              <mxPoint x="-72.5" y="330" />
              <mxPoint x="-52.5" y="340" />
            </Array>
            <mxPoint as="offset" />
          </mxGeometry>
        </mxCell>
        <mxCell id="3GTKKzVxXfIGzvCKWGv_-25" value="" style="html=1;points=[];perimeter=orthogonalPerimeter;outlineConnect=0;targetShapes=umlLifeline;portConstraint=eastwest;newEdgeStyle={&quot;edgeStyle&quot;:&quot;elbowEdgeStyle&quot;,&quot;elbow&quot;:&quot;vertical&quot;,&quot;curved&quot;:0,&quot;rounded&quot;:0};" parent="cqVYMry59N9UZPgs0Bm9-7" vertex="1">
          <mxGeometry x="47.5" y="220" width="10" height="50" as="geometry" />
        </mxCell>
        <mxCell id="U_MsdGsvR3tznzFc6l3o-13" value="&lt;div&gt;&lt;font style=&quot;font-size: 9px;&quot;&gt;1: Выбор операции &quot;Изменение данных&quot; &lt;br&gt;&lt;/font&gt;&lt;/div&gt;" style="html=1;verticalAlign=bottom;endArrow=block;edgeStyle=elbowEdgeStyle;elbow=vertical;curved=0;rounded=0;" parent="1" source="U_MsdGsvR3tznzFc6l3o-11" target="U_MsdGsvR3tznzFc6l3o-12" edge="1">
          <mxGeometry x="-0.05" width="80" relative="1" as="geometry">
            <mxPoint x="72.5" y="120" as="sourcePoint" />
            <mxPoint x="232.5" y="120" as="targetPoint" />
            <Array as="points">
              <mxPoint x="237.5" y="120" />
            </Array>
            <mxPoint as="offset" />
          </mxGeometry>
        </mxCell>
        <mxCell id="U_MsdGsvR3tznzFc6l3o-16" value="&lt;font style=&quot;font-size: 9px;&quot;&gt;4: Ввод изменений&lt;/font&gt;" style="html=1;verticalAlign=bottom;endArrow=block;edgeStyle=elbowEdgeStyle;elbow=vertical;curved=0;rounded=0;" parent="1" source="U_MsdGsvR3tznzFc6l3o-11" target="U_MsdGsvR3tznzFc6l3o-12" edge="1">
          <mxGeometry x="0.0307" width="80" relative="1" as="geometry">
            <mxPoint x="72.5" y="190" as="sourcePoint" />
            <mxPoint x="232.5" y="190" as="targetPoint" />
            <Array as="points">
              <mxPoint x="160" y="240" />
              <mxPoint x="170" y="280" />
              <mxPoint x="160" y="280" />
              <mxPoint x="237.5" y="190" />
            </Array>
            <mxPoint as="offset" />
          </mxGeometry>
        </mxCell>
        <mxCell id="z_XZykT9BwUUyuPNIKY1-2" value="" style="html=1;verticalAlign=bottom;endArrow=block;edgeStyle=elbowEdgeStyle;elbow=vertical;curved=0;rounded=0;" parent="1" source="U_MsdGsvR3tznzFc6l3o-12" target="z_XZykT9BwUUyuPNIKY1-1" edge="1">
          <mxGeometry x="-0.2105" y="10" width="80" relative="1" as="geometry">
            <mxPoint x="282.5" y="200" as="sourcePoint" />
            <mxPoint x="392.5" y="200" as="targetPoint" />
            <Array as="points">
              <mxPoint x="370" y="250" />
              <mxPoint x="390" y="220" />
              <mxPoint x="367.5" y="200" />
              <mxPoint x="442.5" y="210" />
            </Array>
            <mxPoint as="offset" />
          </mxGeometry>
        </mxCell>
        <mxCell id="knhCUR0uLUils2cPfXEL-8" value="&lt;font style=&quot;font-size: 9px;&quot;&gt;5:Запрос изменение данных клиента&lt;br&gt;&lt;/font&gt;" style="edgeLabel;html=1;align=center;verticalAlign=middle;resizable=0;points=[];" parent="z_XZykT9BwUUyuPNIKY1-2" vertex="1" connectable="0">
          <mxGeometry x="-0.1419" y="1" relative="1" as="geometry">
            <mxPoint x="13" y="-9" as="offset" />
          </mxGeometry>
        </mxCell>
        <mxCell id="3GTKKzVxXfIGzvCKWGv_-26" value="&lt;font style=&quot;font-size: 9px;&quot;&gt;6: &lt;/font&gt;&lt;font style=&quot;font-size: 9px;&quot;&gt;Запрос изменение данных клиента&lt;/font&gt;" style="html=1;verticalAlign=bottom;endArrow=block;edgeStyle=elbowEdgeStyle;elbow=vertical;curved=0;rounded=0;" parent="1" source="z_XZykT9BwUUyuPNIKY1-1" target="3GTKKzVxXfIGzvCKWGv_-25" edge="1">
          <mxGeometry x="0.0301" width="80" relative="1" as="geometry">
            <mxPoint x="472.5" y="210" as="sourcePoint" />
            <mxPoint x="622.5" y="210" as="targetPoint" />
            <Array as="points">
              <mxPoint x="480" y="260" />
              <mxPoint x="550" y="270" />
              <mxPoint x="480" y="220" />
              <mxPoint x="562.5" y="210" />
              <mxPoint x="637.5" y="220" />
            </Array>
            <mxPoint as="offset" />
          </mxGeometry>
        </mxCell>
        <mxCell id="3GTKKzVxXfIGzvCKWGv_-29" value="&lt;font style=&quot;font-size: 9px;&quot;&gt;7: Валидация данных&lt;br&gt;&lt;/font&gt;" style="html=1;verticalAlign=bottom;endArrow=block;edgeStyle=elbowEdgeStyle;elbow=vertical;curved=0;rounded=0;" parent="1" source="3GTKKzVxXfIGzvCKWGv_-25" target="3GTKKzVxXfIGzvCKWGv_-28" edge="1">
          <mxGeometry x="0.0316" width="80" relative="1" as="geometry">
            <mxPoint x="652.5" y="240" as="sourcePoint" />
            <mxPoint x="812.5" y="240" as="targetPoint" />
            <Array as="points">
              <mxPoint x="710" y="280" />
              <mxPoint x="737.5" y="240" />
              <mxPoint x="812.5" y="250" />
            </Array>
            <mxPoint as="offset" />
          </mxGeometry>
        </mxCell>
        <mxCell id="3kv5yJXeI2V7Gf_krpT_-14" value="&lt;font style=&quot;font-size: 9px;&quot;&gt;11: Отправка положительного &lt;br&gt;сообщения &lt;/font&gt;" style="html=1;verticalAlign=bottom;endArrow=open;dashed=1;endSize=8;edgeStyle=elbowEdgeStyle;elbow=vertical;curved=0;rounded=0;" parent="1" source="3GTKKzVxXfIGzvCKWGv_-13" target="3GTKKzVxXfIGzvCKWGv_-30" edge="1">
          <mxGeometry x="0.0556" relative="1" as="geometry">
            <mxPoint x="612.5" y="490" as="sourcePoint" />
            <mxPoint x="472.5" y="490" as="targetPoint" />
            <Array as="points">
              <mxPoint x="547.5" y="490" />
              <mxPoint x="545" y="480" />
              <mxPoint x="535" y="490" />
              <mxPoint x="555" y="500" />
            </Array>
            <mxPoint as="offset" />
          </mxGeometry>
        </mxCell>
        <mxCell id="3kv5yJXeI2V7Gf_krpT_-15" value="&lt;font style=&quot;font-size: 9px;&quot;&gt;12: Отправка положительного &lt;br&gt;сообщения в интерфейс&lt;br&gt;&lt;/font&gt;" style="html=1;verticalAlign=bottom;endArrow=open;dashed=1;endSize=8;edgeStyle=elbowEdgeStyle;elbow=vertical;curved=0;rounded=0;" parent="1" source="3GTKKzVxXfIGzvCKWGv_-30" target="U_MsdGsvR3tznzFc6l3o-12" edge="1">
          <mxGeometry x="0.013" relative="1" as="geometry">
            <mxPoint x="432.5" y="520" as="sourcePoint" />
            <mxPoint x="272.5" y="520" as="targetPoint" />
            <Array as="points">
              <mxPoint x="362.5" y="520" />
              <mxPoint x="360" y="510" />
              <mxPoint x="350" y="520" />
              <mxPoint x="370" y="530" />
            </Array>
            <mxPoint as="offset" />
          </mxGeometry>
        </mxCell>
        <mxCell id="3kv5yJXeI2V7Gf_krpT_-21" value="&lt;font style=&quot;font-size: 9px;&quot;&gt;15: Отправка сообщения&lt;br&gt; об ошибке в форму&lt;br&gt;&lt;/font&gt;" style="html=1;verticalAlign=bottom;endArrow=open;dashed=1;endSize=8;edgeStyle=elbowEdgeStyle;elbow=vertical;curved=0;rounded=0;" parent="1" source="3kv5yJXeI2V7Gf_krpT_-17" target="U_MsdGsvR3tznzFc6l3o-12" edge="1">
          <mxGeometry x="-0.1053" relative="1" as="geometry">
            <mxPoint x="422.5" y="700" as="sourcePoint" />
            <mxPoint x="272.5" y="700" as="targetPoint" />
            <Array as="points">
              <mxPoint x="387.5" y="700" />
              <mxPoint x="365" y="700" />
              <mxPoint x="385" y="710" />
            </Array>
            <mxPoint as="offset" />
          </mxGeometry>
        </mxCell>
        <mxCell id="knhCUR0uLUils2cPfXEL-4" value="&lt;div&gt;&lt;font style=&quot;font-size: 9px;&quot;&gt;2: Запрос на окрытие формы &lt;br&gt;&lt;/font&gt;&lt;/div&gt;&lt;div&gt;&lt;font style=&quot;font-size: 9px;&quot;&gt;&quot;Изменение информации о клиенте&quot; &lt;/font&gt;&lt;/div&gt;" style="html=1;verticalAlign=bottom;endArrow=block;edgeStyle=elbowEdgeStyle;elbow=vertical;curved=0;rounded=0;" parent="1" source="U_MsdGsvR3tznzFc6l3o-12" target="knhCUR0uLUils2cPfXEL-5" edge="1">
          <mxGeometry x="-0.05" width="80" relative="1" as="geometry">
            <mxPoint x="260" y="140" as="sourcePoint" />
            <mxPoint x="420" y="140" as="targetPoint" />
            <Array as="points">
              <mxPoint x="442.5" y="140" />
            </Array>
            <mxPoint as="offset" />
          </mxGeometry>
        </mxCell>
        <mxCell id="knhCUR0uLUils2cPfXEL-6" value="" style="html=1;verticalAlign=bottom;endArrow=open;dashed=1;endSize=8;edgeStyle=elbowEdgeStyle;elbow=vertical;curved=0;rounded=0;" parent="1" source="knhCUR0uLUils2cPfXEL-5" target="U_MsdGsvR3tznzFc6l3o-12" edge="1">
          <mxGeometry relative="1" as="geometry">
            <mxPoint x="430" y="170" as="sourcePoint" />
            <mxPoint x="260" y="170" as="targetPoint" />
            <Array as="points">
              <mxPoint x="397.5" y="170" />
              <mxPoint x="377.5" y="160" />
              <mxPoint x="377.5" y="170" />
              <mxPoint x="447.5" y="160" />
            </Array>
          </mxGeometry>
        </mxCell>
        <mxCell id="knhCUR0uLUils2cPfXEL-7" value="&lt;font style=&quot;font-size: 9px;&quot;&gt;3: Открытие&lt;/font&gt;&lt;font style=&quot;font-size: 9px;&quot;&gt; формы&lt;br&gt;&lt;/font&gt;" style="edgeLabel;html=1;align=center;verticalAlign=middle;resizable=0;points=[];" parent="knhCUR0uLUils2cPfXEL-6" vertex="1" connectable="0">
          <mxGeometry x="0.3274" y="-2" relative="1" as="geometry">
            <mxPoint x="25" y="-8" as="offset" />
          </mxGeometry>
        </mxCell>
      </root>
    </mxGraphModel>
  </diagram>
</mxfile>
